<svg width="30" height="34" viewBox="0 0 30 34" fill="none" xmlns="http://www.w3.org/2000/svg">
<g filter="url(#filter0_d_446_3)">
<path d="M5.644 26C5.188 26 4.816 25.868 4.528 25.604C4.264 25.34 4.132 24.992 4.132 24.56V2.06C4.132 1.628 4.264 1.28 4.528 1.016C4.816 0.751999 5.188 0.619998 5.644 0.619998H12.664C16.72 0.619998 19.852 1.724 22.06 3.932C24.292 6.116 25.408 9.236 25.408 13.292C25.408 17.348 24.292 20.48 22.06 22.688C19.828 24.896 16.696 26 12.664 26H5.644ZM12.484 23.48C19.06 23.48 22.348 20.084 22.348 13.292C22.348 6.524 19.06 3.14 12.484 3.14H7.084V23.48H12.484Z" fill="#118DFF"/>
<path d="M4.528 25.604L3.11379 27.0182L3.14452 27.0489L3.17655 27.0783L4.528 25.604ZM4.528 1.016L3.17655 -0.458306L3.14452 -0.428943L3.11379 -0.398215L4.528 1.016ZM22.06 3.932L20.6458 5.34621L20.6535 5.3539L20.6612 5.3615L22.06 3.932ZM22.06 22.688L23.4665 24.1098L23.4666 24.1098L22.06 22.688ZM7.084 3.14V1.14H5.084V3.14H7.084ZM7.084 23.48H5.084V25.48H7.084V23.48ZM5.644 24C5.60911 24 5.63259 23.9951 5.69182 24.0161C5.75591 24.0389 5.82365 24.0785 5.87945 24.1297L3.17655 27.0783C3.89423 27.7362 4.77674 28 5.644 28V24ZM5.94221 24.1898C6.00965 24.2572 6.06632 24.3443 6.101 24.4357C6.13357 24.5216 6.132 24.572 6.132 24.56H2.132C2.132 25.4322 2.41542 26.3198 3.11379 27.0182L5.94221 24.1898ZM6.132 24.56V2.06H2.132V24.56H6.132ZM6.132 2.06C6.132 2.04804 6.13357 2.09844 6.101 2.18431C6.06632 2.27572 6.00965 2.36278 5.94221 2.43021L3.11379 -0.398215C2.41542 0.300154 2.132 1.18776 2.132 2.06H6.132ZM5.87945 2.49031C5.82365 2.54146 5.75591 2.58111 5.69182 2.60385C5.63259 2.62487 5.60911 2.62 5.644 2.62V-1.38C4.77673 -1.38 3.89423 -1.11618 3.17655 -0.458306L5.87945 2.49031ZM5.644 2.62H12.664V-1.38H5.644V2.62ZM12.664 2.62C16.3549 2.62 18.9155 3.61592 20.6458 5.34621L23.4742 2.51779C20.7885 -0.167923 17.0851 -1.38 12.664 -1.38V2.62ZM20.6612 5.3615C22.4032 7.06597 23.408 9.60577 23.408 13.292H27.408C27.408 8.86623 26.1808 5.16603 23.4588 2.5025L20.6612 5.3615ZM23.408 13.292C23.408 16.977 22.4036 19.5348 20.6535 21.2662L23.4666 24.1098C26.1804 21.4252 27.408 17.719 27.408 13.292H23.408ZM20.6535 21.2662C18.8941 23.0066 16.3257 24 12.664 24V28C17.0663 28 20.7619 26.7854 23.4665 24.1098L20.6535 21.2662ZM12.664 24H5.644V28H12.664V24ZM12.484 25.48C16.097 25.48 19.1702 24.5434 21.3189 22.3242C23.4559 20.1169 24.348 16.9804 24.348 13.292H20.348C20.348 16.3956 19.5961 18.3531 18.4451 19.5418C17.3058 20.7186 15.447 21.48 12.484 21.48V25.48ZM24.348 13.292C24.348 9.61391 23.4551 6.48536 21.3164 4.28428C19.1674 2.07252 16.0951 1.14 12.484 1.14V5.14C15.4489 5.14 17.3086 5.89948 18.4476 7.07172C19.597 8.25464 20.348 10.2021 20.348 13.292H24.348ZM12.484 1.14H7.084V5.14H12.484V1.14ZM5.084 3.14V23.48H9.084V3.14H5.084ZM7.084 25.48H12.484V21.48H7.084V25.48Z" fill="#118DFF"/>
</g>
<defs>
<filter id="filter0_d_446_3" x="0.131836" y="0.619995" width="29.2764" height="33.38" filterUnits="userSpaceOnUse" color-interpolation-filters="sRGB">
<feFlood flood-opacity="0" result="BackgroundImageFix"/>
<feColorMatrix in="SourceAlpha" type="matrix" values="0 0 0 0 0 0 0 0 0 0 0 0 0 0 0 0 0 0 127 0" result="hardAlpha"/>
<feOffset dy="4"/>
<feGaussianBlur stdDeviation="2"/>
<feComposite in2="hardAlpha" operator="out"/>
<feColorMatrix type="matrix" values="0 0 0 0 0 0 0 0 0 0 0 0 0 0 0 0 0 0 0.25 0"/>
<feBlend mode="normal" in2="BackgroundImageFix" result="effect1_dropShadow_446_3"/>
<feBlend mode="normal" in="SourceGraphic" in2="effect1_dropShadow_446_3" result="shape"/>
</filter>
</defs>
</svg>
